%TF.GenerationSoftware,KiCad,Pcbnew,4.0.7*%
%TF.CreationDate,2018-07-03T10:31:09+02:00*%
%TF.ProjectId,smd_aio,736D645F61696F2E6B696361645F7063,rev?*%
%TF.FileFunction,Legend,Bot*%
%FSLAX46Y46*%
G04 Gerber Fmt 4.6, Leading zero omitted, Abs format (unit mm)*
G04 Created by KiCad (PCBNEW 4.0.7) date Tuesday, 03 July 2018 'AMt' 10:31:09*
%MOMM*%
%LPD*%
G01*
G04 APERTURE LIST*
%ADD10C,0.100000*%
%ADD11C,0.010000*%
G04 APERTURE END LIST*
D10*
D11*
G36*
X38184666Y-27855333D02*
X33399640Y-27855334D01*
X32643115Y-27855195D01*
X31966850Y-27854745D01*
X31366437Y-27853931D01*
X30837469Y-27852699D01*
X30375540Y-27850997D01*
X29976243Y-27848773D01*
X29635170Y-27845973D01*
X29347915Y-27842544D01*
X29110070Y-27838434D01*
X28917230Y-27833590D01*
X28764986Y-27827960D01*
X28648932Y-27821489D01*
X28564661Y-27814127D01*
X28507766Y-27805819D01*
X28473841Y-27796513D01*
X28473387Y-27796325D01*
X28300980Y-27681347D01*
X28167551Y-27507362D01*
X28088414Y-27296658D01*
X28076394Y-27218549D01*
X28056227Y-27008667D01*
X29379333Y-27008667D01*
X29379333Y-26077333D01*
X28067000Y-26077333D01*
X28067000Y-23749000D01*
X26915887Y-23749000D01*
X26936349Y-25431750D01*
X26942800Y-25905645D01*
X26950301Y-26304135D01*
X26959849Y-26636481D01*
X26972442Y-26911944D01*
X26989077Y-27139786D01*
X27010753Y-27329269D01*
X27038466Y-27489654D01*
X27073215Y-27630202D01*
X27115997Y-27760175D01*
X27167811Y-27888833D01*
X27211549Y-27986463D01*
X27378644Y-28285376D01*
X27578371Y-28517090D01*
X27825271Y-28697118D01*
X27930283Y-28753139D01*
X28213347Y-28892500D01*
X33199006Y-28903765D01*
X38184666Y-28915029D01*
X38184666Y-27855333D01*
X38184666Y-27855333D01*
G37*
X38184666Y-27855333D02*
X33399640Y-27855334D01*
X32643115Y-27855195D01*
X31966850Y-27854745D01*
X31366437Y-27853931D01*
X30837469Y-27852699D01*
X30375540Y-27850997D01*
X29976243Y-27848773D01*
X29635170Y-27845973D01*
X29347915Y-27842544D01*
X29110070Y-27838434D01*
X28917230Y-27833590D01*
X28764986Y-27827960D01*
X28648932Y-27821489D01*
X28564661Y-27814127D01*
X28507766Y-27805819D01*
X28473841Y-27796513D01*
X28473387Y-27796325D01*
X28300980Y-27681347D01*
X28167551Y-27507362D01*
X28088414Y-27296658D01*
X28076394Y-27218549D01*
X28056227Y-27008667D01*
X29379333Y-27008667D01*
X29379333Y-26077333D01*
X28067000Y-26077333D01*
X28067000Y-23749000D01*
X26915887Y-23749000D01*
X26936349Y-25431750D01*
X26942800Y-25905645D01*
X26950301Y-26304135D01*
X26959849Y-26636481D01*
X26972442Y-26911944D01*
X26989077Y-27139786D01*
X27010753Y-27329269D01*
X27038466Y-27489654D01*
X27073215Y-27630202D01*
X27115997Y-27760175D01*
X27167811Y-27888833D01*
X27211549Y-27986463D01*
X27378644Y-28285376D01*
X27578371Y-28517090D01*
X27825271Y-28697118D01*
X27930283Y-28753139D01*
X28213347Y-28892500D01*
X33199006Y-28903765D01*
X38184666Y-28915029D01*
X38184666Y-27855333D01*
G36*
X31623000Y-26611438D02*
X31622037Y-26401775D01*
X31610241Y-26262381D01*
X31574250Y-26178895D01*
X31500705Y-26136956D01*
X31376244Y-26122205D01*
X31187506Y-26120282D01*
X31165992Y-26120245D01*
X31008277Y-26114655D01*
X30906070Y-26093312D01*
X30830556Y-26048089D01*
X30795575Y-26015758D01*
X30691666Y-25911849D01*
X30691666Y-23749000D01*
X29755875Y-23749000D01*
X29768687Y-25075348D01*
X29781500Y-26401695D01*
X29908705Y-26609931D01*
X30029290Y-26770057D01*
X30180655Y-26887910D01*
X30265546Y-26934583D01*
X30364595Y-26982184D01*
X30453420Y-27014690D01*
X30551522Y-27034963D01*
X30678405Y-27045863D01*
X30853571Y-27050252D01*
X31059091Y-27051000D01*
X31623000Y-27051000D01*
X31623000Y-26611438D01*
X31623000Y-26611438D01*
G37*
X31623000Y-26611438D02*
X31622037Y-26401775D01*
X31610241Y-26262381D01*
X31574250Y-26178895D01*
X31500705Y-26136956D01*
X31376244Y-26122205D01*
X31187506Y-26120282D01*
X31165992Y-26120245D01*
X31008277Y-26114655D01*
X30906070Y-26093312D01*
X30830556Y-26048089D01*
X30795575Y-26015758D01*
X30691666Y-25911849D01*
X30691666Y-23749000D01*
X29755875Y-23749000D01*
X29768687Y-25075348D01*
X29781500Y-26401695D01*
X29908705Y-26609931D01*
X30029290Y-26770057D01*
X30180655Y-26887910D01*
X30265546Y-26934583D01*
X30364595Y-26982184D01*
X30453420Y-27014690D01*
X30551522Y-27034963D01*
X30678405Y-27045863D01*
X30853571Y-27050252D01*
X31059091Y-27051000D01*
X31623000Y-27051000D01*
X31623000Y-26611438D01*
G36*
X34798000Y-26246667D02*
X33981919Y-26246667D01*
X33687205Y-26245548D01*
X33465378Y-26241624D01*
X33304681Y-26234040D01*
X33193358Y-26221944D01*
X33119651Y-26204482D01*
X33071803Y-26180802D01*
X33071510Y-26180597D01*
X32987132Y-26096838D01*
X32908693Y-25981341D01*
X32858367Y-25869763D01*
X32850666Y-25825436D01*
X32892066Y-25808911D01*
X33016529Y-25796228D01*
X33224451Y-25787370D01*
X33516229Y-25782317D01*
X33824333Y-25781000D01*
X34798000Y-25781000D01*
X34798000Y-24976667D01*
X33824333Y-24976667D01*
X33547399Y-24975702D01*
X33301098Y-24972997D01*
X33097246Y-24968833D01*
X32947661Y-24963492D01*
X32864162Y-24957259D01*
X32850666Y-24953398D01*
X32868249Y-24903340D01*
X32910873Y-24813728D01*
X32913924Y-24807801D01*
X32960836Y-24724746D01*
X33012137Y-24662023D01*
X33079763Y-24616786D01*
X33175650Y-24586193D01*
X33311734Y-24567398D01*
X33499953Y-24557559D01*
X33752243Y-24553831D01*
X33981919Y-24553333D01*
X34798000Y-24553333D01*
X34798000Y-23749000D01*
X33877250Y-23752639D01*
X33600218Y-23755164D01*
X33346573Y-23760166D01*
X33130406Y-23767152D01*
X32965806Y-23775629D01*
X32866866Y-23785104D01*
X32850392Y-23788554D01*
X32568150Y-23916347D01*
X32331031Y-24114827D01*
X32137717Y-24385196D01*
X32084899Y-24487082D01*
X31965389Y-24789490D01*
X31899604Y-25098060D01*
X31882501Y-25441043D01*
X31887952Y-25590500D01*
X31930117Y-25946291D01*
X32017270Y-26244549D01*
X32156096Y-26503249D01*
X32291122Y-26674357D01*
X32393574Y-26784695D01*
X32487118Y-26870960D01*
X32583786Y-26936119D01*
X32695611Y-26983143D01*
X32834626Y-27014999D01*
X33012862Y-27034657D01*
X33242353Y-27045086D01*
X33535131Y-27049255D01*
X33813750Y-27050070D01*
X34798000Y-27051000D01*
X34798000Y-26246667D01*
X34798000Y-26246667D01*
G37*
X34798000Y-26246667D02*
X33981919Y-26246667D01*
X33687205Y-26245548D01*
X33465378Y-26241624D01*
X33304681Y-26234040D01*
X33193358Y-26221944D01*
X33119651Y-26204482D01*
X33071803Y-26180802D01*
X33071510Y-26180597D01*
X32987132Y-26096838D01*
X32908693Y-25981341D01*
X32858367Y-25869763D01*
X32850666Y-25825436D01*
X32892066Y-25808911D01*
X33016529Y-25796228D01*
X33224451Y-25787370D01*
X33516229Y-25782317D01*
X33824333Y-25781000D01*
X34798000Y-25781000D01*
X34798000Y-24976667D01*
X33824333Y-24976667D01*
X33547399Y-24975702D01*
X33301098Y-24972997D01*
X33097246Y-24968833D01*
X32947661Y-24963492D01*
X32864162Y-24957259D01*
X32850666Y-24953398D01*
X32868249Y-24903340D01*
X32910873Y-24813728D01*
X32913924Y-24807801D01*
X32960836Y-24724746D01*
X33012137Y-24662023D01*
X33079763Y-24616786D01*
X33175650Y-24586193D01*
X33311734Y-24567398D01*
X33499953Y-24557559D01*
X33752243Y-24553831D01*
X33981919Y-24553333D01*
X34798000Y-24553333D01*
X34798000Y-23749000D01*
X33877250Y-23752639D01*
X33600218Y-23755164D01*
X33346573Y-23760166D01*
X33130406Y-23767152D01*
X32965806Y-23775629D01*
X32866866Y-23785104D01*
X32850392Y-23788554D01*
X32568150Y-23916347D01*
X32331031Y-24114827D01*
X32137717Y-24385196D01*
X32084899Y-24487082D01*
X31965389Y-24789490D01*
X31899604Y-25098060D01*
X31882501Y-25441043D01*
X31887952Y-25590500D01*
X31930117Y-25946291D01*
X32017270Y-26244549D01*
X32156096Y-26503249D01*
X32291122Y-26674357D01*
X32393574Y-26784695D01*
X32487118Y-26870960D01*
X32583786Y-26936119D01*
X32695611Y-26983143D01*
X32834626Y-27014999D01*
X33012862Y-27034657D01*
X33242353Y-27045086D01*
X33535131Y-27049255D01*
X33813750Y-27050070D01*
X34798000Y-27051000D01*
X34798000Y-26246667D01*
G36*
X38142333Y-26246667D02*
X37341248Y-26246667D01*
X37062188Y-26246364D01*
X36854759Y-26244459D01*
X36705926Y-26239460D01*
X36602651Y-26229873D01*
X36531900Y-26214204D01*
X36480637Y-26190961D01*
X36435825Y-26158650D01*
X36413918Y-26140439D01*
X36316857Y-26035065D01*
X36247932Y-25919210D01*
X36243539Y-25907606D01*
X36199404Y-25781000D01*
X38184666Y-25781000D01*
X38184666Y-24978199D01*
X37191961Y-24966850D01*
X36199255Y-24955500D01*
X36266979Y-24815719D01*
X36314653Y-24730523D01*
X36372006Y-24665919D01*
X36450688Y-24619101D01*
X36562352Y-24587266D01*
X36718649Y-24567609D01*
X36931232Y-24557325D01*
X37211751Y-24553610D01*
X37357064Y-24553333D01*
X38142333Y-24553333D01*
X38142333Y-23749000D01*
X37221583Y-23752639D01*
X36944551Y-23755164D01*
X36690907Y-23760166D01*
X36474739Y-23767152D01*
X36310140Y-23775629D01*
X36211199Y-23785104D01*
X36194725Y-23788554D01*
X35935617Y-23904665D01*
X35715532Y-24086321D01*
X35528071Y-24339711D01*
X35427934Y-24530162D01*
X35307619Y-24865348D01*
X35246644Y-25215990D01*
X35242063Y-25569224D01*
X35290932Y-25912187D01*
X35390308Y-26232016D01*
X35537247Y-26515848D01*
X35728804Y-26750819D01*
X35962036Y-26924066D01*
X35977754Y-26932459D01*
X36204668Y-27051000D01*
X38142333Y-27051000D01*
X38142333Y-26246667D01*
X38142333Y-26246667D01*
G37*
X38142333Y-26246667D02*
X37341248Y-26246667D01*
X37062188Y-26246364D01*
X36854759Y-26244459D01*
X36705926Y-26239460D01*
X36602651Y-26229873D01*
X36531900Y-26214204D01*
X36480637Y-26190961D01*
X36435825Y-26158650D01*
X36413918Y-26140439D01*
X36316857Y-26035065D01*
X36247932Y-25919210D01*
X36243539Y-25907606D01*
X36199404Y-25781000D01*
X38184666Y-25781000D01*
X38184666Y-24978199D01*
X37191961Y-24966850D01*
X36199255Y-24955500D01*
X36266979Y-24815719D01*
X36314653Y-24730523D01*
X36372006Y-24665919D01*
X36450688Y-24619101D01*
X36562352Y-24587266D01*
X36718649Y-24567609D01*
X36931232Y-24557325D01*
X37211751Y-24553610D01*
X37357064Y-24553333D01*
X38142333Y-24553333D01*
X38142333Y-23749000D01*
X37221583Y-23752639D01*
X36944551Y-23755164D01*
X36690907Y-23760166D01*
X36474739Y-23767152D01*
X36310140Y-23775629D01*
X36211199Y-23785104D01*
X36194725Y-23788554D01*
X35935617Y-23904665D01*
X35715532Y-24086321D01*
X35528071Y-24339711D01*
X35427934Y-24530162D01*
X35307619Y-24865348D01*
X35246644Y-25215990D01*
X35242063Y-25569224D01*
X35290932Y-25912187D01*
X35390308Y-26232016D01*
X35537247Y-26515848D01*
X35728804Y-26750819D01*
X35962036Y-26924066D01*
X35977754Y-26932459D01*
X36204668Y-27051000D01*
X38142333Y-27051000D01*
X38142333Y-26246667D01*
G36*
X40142583Y-28905101D02*
X41634833Y-28892500D01*
X41875183Y-28774470D01*
X42147330Y-28597300D01*
X42398469Y-28349089D01*
X42620157Y-28042524D01*
X42803947Y-27690295D01*
X42941393Y-27305088D01*
X42991440Y-27097480D01*
X43035352Y-26782577D01*
X43052672Y-26425998D01*
X43044537Y-26054505D01*
X43012087Y-25694860D01*
X42956461Y-25373825D01*
X42910921Y-25206181D01*
X42756102Y-24831624D01*
X42551734Y-24497166D01*
X42307363Y-24214211D01*
X42032535Y-23994162D01*
X41791535Y-23868819D01*
X41723383Y-23842869D01*
X41655890Y-23821906D01*
X41579236Y-23805286D01*
X41483598Y-23792363D01*
X41359154Y-23782492D01*
X41196081Y-23775028D01*
X40984556Y-23769326D01*
X40714758Y-23764740D01*
X40376864Y-23760627D01*
X40100250Y-23757740D01*
X38650333Y-23743060D01*
X38650333Y-24844964D01*
X39888583Y-24857899D01*
X40270850Y-24862286D01*
X40578371Y-24867981D01*
X40821060Y-24877036D01*
X41008835Y-24891504D01*
X41151613Y-24913437D01*
X41259308Y-24944888D01*
X41341838Y-24987910D01*
X41409120Y-25044555D01*
X41471068Y-25116877D01*
X41531058Y-25197893D01*
X41684877Y-25477178D01*
X41788495Y-25817110D01*
X41839487Y-26208441D01*
X41844627Y-26394833D01*
X41820028Y-26774239D01*
X41749613Y-27108486D01*
X41636724Y-27389461D01*
X41484701Y-27609050D01*
X41296885Y-27759140D01*
X41278871Y-27768692D01*
X41225148Y-27793826D01*
X41166964Y-27813579D01*
X41093917Y-27828597D01*
X40995606Y-27839523D01*
X40861630Y-27847001D01*
X40681586Y-27851676D01*
X40445072Y-27854191D01*
X40141688Y-27855191D01*
X39879686Y-27855333D01*
X38650333Y-27855333D01*
X38650333Y-28917703D01*
X40142583Y-28905101D01*
X40142583Y-28905101D01*
G37*
X40142583Y-28905101D02*
X41634833Y-28892500D01*
X41875183Y-28774470D01*
X42147330Y-28597300D01*
X42398469Y-28349089D01*
X42620157Y-28042524D01*
X42803947Y-27690295D01*
X42941393Y-27305088D01*
X42991440Y-27097480D01*
X43035352Y-26782577D01*
X43052672Y-26425998D01*
X43044537Y-26054505D01*
X43012087Y-25694860D01*
X42956461Y-25373825D01*
X42910921Y-25206181D01*
X42756102Y-24831624D01*
X42551734Y-24497166D01*
X42307363Y-24214211D01*
X42032535Y-23994162D01*
X41791535Y-23868819D01*
X41723383Y-23842869D01*
X41655890Y-23821906D01*
X41579236Y-23805286D01*
X41483598Y-23792363D01*
X41359154Y-23782492D01*
X41196081Y-23775028D01*
X40984556Y-23769326D01*
X40714758Y-23764740D01*
X40376864Y-23760627D01*
X40100250Y-23757740D01*
X38650333Y-23743060D01*
X38650333Y-24844964D01*
X39888583Y-24857899D01*
X40270850Y-24862286D01*
X40578371Y-24867981D01*
X40821060Y-24877036D01*
X41008835Y-24891504D01*
X41151613Y-24913437D01*
X41259308Y-24944888D01*
X41341838Y-24987910D01*
X41409120Y-25044555D01*
X41471068Y-25116877D01*
X41531058Y-25197893D01*
X41684877Y-25477178D01*
X41788495Y-25817110D01*
X41839487Y-26208441D01*
X41844627Y-26394833D01*
X41820028Y-26774239D01*
X41749613Y-27108486D01*
X41636724Y-27389461D01*
X41484701Y-27609050D01*
X41296885Y-27759140D01*
X41278871Y-27768692D01*
X41225148Y-27793826D01*
X41166964Y-27813579D01*
X41093917Y-27828597D01*
X40995606Y-27839523D01*
X40861630Y-27847001D01*
X40681586Y-27851676D01*
X40445072Y-27854191D01*
X40141688Y-27855191D01*
X39879686Y-27855333D01*
X38650333Y-27855333D01*
X38650333Y-28917703D01*
X40142583Y-28905101D01*
G36*
X47969471Y-28903999D02*
X51625500Y-28892500D01*
X51796736Y-28800818D01*
X51975558Y-28675746D01*
X52156830Y-28500576D01*
X52313533Y-28304581D01*
X52410777Y-28135588D01*
X52500676Y-27857179D01*
X52549379Y-27539685D01*
X52552477Y-27220278D01*
X52536378Y-27076624D01*
X52458016Y-26750761D01*
X52329848Y-26476402D01*
X52139861Y-26229288D01*
X52092441Y-26180047D01*
X51970008Y-26065119D01*
X51851647Y-25977561D01*
X51723309Y-25913705D01*
X51570944Y-25869886D01*
X51380503Y-25842436D01*
X51137936Y-25827690D01*
X50829194Y-25821982D01*
X50718375Y-25821475D01*
X50393361Y-25817776D01*
X50140260Y-25807078D01*
X49946458Y-25787249D01*
X49799343Y-25756154D01*
X49686300Y-25711659D01*
X49594715Y-25651630D01*
X49565196Y-25626375D01*
X49491349Y-25552176D01*
X49435477Y-25472469D01*
X49394740Y-25374129D01*
X49366297Y-25244027D01*
X49347306Y-25069036D01*
X49334927Y-24836028D01*
X49326318Y-24531877D01*
X49326089Y-24521583D01*
X49309050Y-23749000D01*
X48210192Y-23749000D01*
X48226642Y-24817917D01*
X48233222Y-25180647D01*
X48241878Y-25470631D01*
X48254590Y-25699786D01*
X48273341Y-25880032D01*
X48300110Y-26023288D01*
X48336879Y-26141473D01*
X48385630Y-26246507D01*
X48448342Y-26350308D01*
X48492079Y-26414912D01*
X48605352Y-26558846D01*
X48731232Y-26673888D01*
X48880130Y-26763000D01*
X49062461Y-26829146D01*
X49288639Y-26875288D01*
X49569077Y-26904389D01*
X49914189Y-26919412D01*
X50279056Y-26923339D01*
X50569294Y-26923943D01*
X50787219Y-26926063D01*
X50945182Y-26930926D01*
X51055534Y-26939760D01*
X51130629Y-26953793D01*
X51182817Y-26974251D01*
X51224452Y-27002364D01*
X51244756Y-27019316D01*
X51341907Y-27152135D01*
X51384083Y-27318425D01*
X51374077Y-27493961D01*
X51314680Y-27654520D01*
X51208684Y-27775877D01*
X51153856Y-27808021D01*
X51092897Y-27816774D01*
X50955686Y-27824692D01*
X50750340Y-27831770D01*
X50484978Y-27838002D01*
X50167718Y-27843384D01*
X49806677Y-27847911D01*
X49409973Y-27851579D01*
X48985725Y-27854383D01*
X48542050Y-27856319D01*
X48087067Y-27857381D01*
X47628893Y-27857565D01*
X47175646Y-27856867D01*
X46735445Y-27855282D01*
X46316408Y-27852805D01*
X45926651Y-27849431D01*
X45574294Y-27845156D01*
X45267454Y-27839976D01*
X45014249Y-27833884D01*
X44822798Y-27826878D01*
X44701218Y-27818952D01*
X44659321Y-27811745D01*
X44549895Y-27711200D01*
X44481125Y-27563866D01*
X44453701Y-27393239D01*
X44468318Y-27222817D01*
X44525666Y-27076096D01*
X44626438Y-26976572D01*
X44634592Y-26972254D01*
X44706630Y-26956976D01*
X44854648Y-26942902D01*
X45069966Y-26930504D01*
X45343901Y-26920253D01*
X45667771Y-26912619D01*
X45762333Y-26911072D01*
X46140935Y-26903645D01*
X46441649Y-26893606D01*
X46671227Y-26880542D01*
X46836419Y-26864038D01*
X46943976Y-26843679D01*
X46964814Y-26837185D01*
X47157642Y-26735091D01*
X47353846Y-26572954D01*
X47532366Y-26371795D01*
X47672142Y-26152633D01*
X47692514Y-26110840D01*
X47745476Y-25989929D01*
X47780617Y-25885221D01*
X47801554Y-25773939D01*
X47811905Y-25633309D01*
X47815287Y-25440554D01*
X47815500Y-25336500D01*
X47813995Y-25114478D01*
X47807069Y-24954328D01*
X47791105Y-24833274D01*
X47762486Y-24728540D01*
X47717594Y-24617352D01*
X47692514Y-24562161D01*
X47561802Y-24341099D01*
X47387892Y-24133984D01*
X47192043Y-23962070D01*
X46995511Y-23846612D01*
X46964814Y-23834577D01*
X46901186Y-23818270D01*
X46803452Y-23804536D01*
X46664236Y-23793069D01*
X46476165Y-23783562D01*
X46231862Y-23775710D01*
X45923952Y-23769207D01*
X45545061Y-23763747D01*
X45159083Y-23759674D01*
X43518666Y-23744428D01*
X43518666Y-24849667D01*
X46403846Y-24849667D01*
X46521038Y-24966859D01*
X46636019Y-25136832D01*
X46675598Y-25330570D01*
X46636455Y-25528533D01*
X46621943Y-25560773D01*
X46580427Y-25638341D01*
X46533971Y-25698845D01*
X46472135Y-25744432D01*
X46384478Y-25777247D01*
X46260560Y-25799437D01*
X46089941Y-25813150D01*
X45862180Y-25820532D01*
X45566838Y-25823729D01*
X45339000Y-25824568D01*
X44977117Y-25827133D01*
X44691678Y-25833100D01*
X44474514Y-25842894D01*
X44317453Y-25856937D01*
X44212327Y-25875652D01*
X44183214Y-25884460D01*
X43896863Y-26030570D01*
X43654148Y-26246542D01*
X43460591Y-26526635D01*
X43366351Y-26733500D01*
X43323923Y-26874601D01*
X43298478Y-27040824D01*
X43287127Y-27255732D01*
X43285833Y-27389667D01*
X43287868Y-27597355D01*
X43297202Y-27746914D01*
X43318676Y-27864849D01*
X43357132Y-27977662D01*
X43417412Y-28111855D01*
X43417995Y-28113084D01*
X43599937Y-28417114D01*
X43825453Y-28650413D01*
X44092310Y-28814260D01*
X44313443Y-28915498D01*
X47969471Y-28903999D01*
X47969471Y-28903999D01*
G37*
X47969471Y-28903999D02*
X51625500Y-28892500D01*
X51796736Y-28800818D01*
X51975558Y-28675746D01*
X52156830Y-28500576D01*
X52313533Y-28304581D01*
X52410777Y-28135588D01*
X52500676Y-27857179D01*
X52549379Y-27539685D01*
X52552477Y-27220278D01*
X52536378Y-27076624D01*
X52458016Y-26750761D01*
X52329848Y-26476402D01*
X52139861Y-26229288D01*
X52092441Y-26180047D01*
X51970008Y-26065119D01*
X51851647Y-25977561D01*
X51723309Y-25913705D01*
X51570944Y-25869886D01*
X51380503Y-25842436D01*
X51137936Y-25827690D01*
X50829194Y-25821982D01*
X50718375Y-25821475D01*
X50393361Y-25817776D01*
X50140260Y-25807078D01*
X49946458Y-25787249D01*
X49799343Y-25756154D01*
X49686300Y-25711659D01*
X49594715Y-25651630D01*
X49565196Y-25626375D01*
X49491349Y-25552176D01*
X49435477Y-25472469D01*
X49394740Y-25374129D01*
X49366297Y-25244027D01*
X49347306Y-25069036D01*
X49334927Y-24836028D01*
X49326318Y-24531877D01*
X49326089Y-24521583D01*
X49309050Y-23749000D01*
X48210192Y-23749000D01*
X48226642Y-24817917D01*
X48233222Y-25180647D01*
X48241878Y-25470631D01*
X48254590Y-25699786D01*
X48273341Y-25880032D01*
X48300110Y-26023288D01*
X48336879Y-26141473D01*
X48385630Y-26246507D01*
X48448342Y-26350308D01*
X48492079Y-26414912D01*
X48605352Y-26558846D01*
X48731232Y-26673888D01*
X48880130Y-26763000D01*
X49062461Y-26829146D01*
X49288639Y-26875288D01*
X49569077Y-26904389D01*
X49914189Y-26919412D01*
X50279056Y-26923339D01*
X50569294Y-26923943D01*
X50787219Y-26926063D01*
X50945182Y-26930926D01*
X51055534Y-26939760D01*
X51130629Y-26953793D01*
X51182817Y-26974251D01*
X51224452Y-27002364D01*
X51244756Y-27019316D01*
X51341907Y-27152135D01*
X51384083Y-27318425D01*
X51374077Y-27493961D01*
X51314680Y-27654520D01*
X51208684Y-27775877D01*
X51153856Y-27808021D01*
X51092897Y-27816774D01*
X50955686Y-27824692D01*
X50750340Y-27831770D01*
X50484978Y-27838002D01*
X50167718Y-27843384D01*
X49806677Y-27847911D01*
X49409973Y-27851579D01*
X48985725Y-27854383D01*
X48542050Y-27856319D01*
X48087067Y-27857381D01*
X47628893Y-27857565D01*
X47175646Y-27856867D01*
X46735445Y-27855282D01*
X46316408Y-27852805D01*
X45926651Y-27849431D01*
X45574294Y-27845156D01*
X45267454Y-27839976D01*
X45014249Y-27833884D01*
X44822798Y-27826878D01*
X44701218Y-27818952D01*
X44659321Y-27811745D01*
X44549895Y-27711200D01*
X44481125Y-27563866D01*
X44453701Y-27393239D01*
X44468318Y-27222817D01*
X44525666Y-27076096D01*
X44626438Y-26976572D01*
X44634592Y-26972254D01*
X44706630Y-26956976D01*
X44854648Y-26942902D01*
X45069966Y-26930504D01*
X45343901Y-26920253D01*
X45667771Y-26912619D01*
X45762333Y-26911072D01*
X46140935Y-26903645D01*
X46441649Y-26893606D01*
X46671227Y-26880542D01*
X46836419Y-26864038D01*
X46943976Y-26843679D01*
X46964814Y-26837185D01*
X47157642Y-26735091D01*
X47353846Y-26572954D01*
X47532366Y-26371795D01*
X47672142Y-26152633D01*
X47692514Y-26110840D01*
X47745476Y-25989929D01*
X47780617Y-25885221D01*
X47801554Y-25773939D01*
X47811905Y-25633309D01*
X47815287Y-25440554D01*
X47815500Y-25336500D01*
X47813995Y-25114478D01*
X47807069Y-24954328D01*
X47791105Y-24833274D01*
X47762486Y-24728540D01*
X47717594Y-24617352D01*
X47692514Y-24562161D01*
X47561802Y-24341099D01*
X47387892Y-24133984D01*
X47192043Y-23962070D01*
X46995511Y-23846612D01*
X46964814Y-23834577D01*
X46901186Y-23818270D01*
X46803452Y-23804536D01*
X46664236Y-23793069D01*
X46476165Y-23783562D01*
X46231862Y-23775710D01*
X45923952Y-23769207D01*
X45545061Y-23763747D01*
X45159083Y-23759674D01*
X43518666Y-23744428D01*
X43518666Y-24849667D01*
X46403846Y-24849667D01*
X46521038Y-24966859D01*
X46636019Y-25136832D01*
X46675598Y-25330570D01*
X46636455Y-25528533D01*
X46621943Y-25560773D01*
X46580427Y-25638341D01*
X46533971Y-25698845D01*
X46472135Y-25744432D01*
X46384478Y-25777247D01*
X46260560Y-25799437D01*
X46089941Y-25813150D01*
X45862180Y-25820532D01*
X45566838Y-25823729D01*
X45339000Y-25824568D01*
X44977117Y-25827133D01*
X44691678Y-25833100D01*
X44474514Y-25842894D01*
X44317453Y-25856937D01*
X44212327Y-25875652D01*
X44183214Y-25884460D01*
X43896863Y-26030570D01*
X43654148Y-26246542D01*
X43460591Y-26526635D01*
X43366351Y-26733500D01*
X43323923Y-26874601D01*
X43298478Y-27040824D01*
X43287127Y-27255732D01*
X43285833Y-27389667D01*
X43287868Y-27597355D01*
X43297202Y-27746914D01*
X43318676Y-27864849D01*
X43357132Y-27977662D01*
X43417412Y-28111855D01*
X43417995Y-28113084D01*
X43599937Y-28417114D01*
X43825453Y-28650413D01*
X44092310Y-28814260D01*
X44313443Y-28915498D01*
X47969471Y-28903999D01*
G36*
X40783264Y-27476045D02*
X40808220Y-27454174D01*
X40873574Y-27373914D01*
X40952754Y-27247702D01*
X41008992Y-27141903D01*
X41068845Y-27003138D01*
X41106962Y-26864567D01*
X41129528Y-26696486D01*
X41141144Y-26507315D01*
X41143682Y-26296970D01*
X41134891Y-26091165D01*
X41116547Y-25924434D01*
X41109166Y-25885937D01*
X41062674Y-25735988D01*
X40993662Y-25579599D01*
X40913872Y-25437136D01*
X40835046Y-25328965D01*
X40768928Y-25275452D01*
X40755757Y-25273000D01*
X40699568Y-25301453D01*
X40606774Y-25375844D01*
X40503511Y-25474083D01*
X40306706Y-25675167D01*
X40387631Y-25773804D01*
X40483941Y-25948499D01*
X40539596Y-26171409D01*
X40555052Y-26417827D01*
X40530765Y-26663045D01*
X40467190Y-26882356D01*
X40364784Y-27051052D01*
X40364052Y-27051863D01*
X40338283Y-27093968D01*
X40347970Y-27142055D01*
X40402216Y-27212914D01*
X40510126Y-27323336D01*
X40512547Y-27325721D01*
X40623452Y-27432821D01*
X40693111Y-27488175D01*
X40740167Y-27499883D01*
X40783264Y-27476045D01*
X40783264Y-27476045D01*
G37*
X40783264Y-27476045D02*
X40808220Y-27454174D01*
X40873574Y-27373914D01*
X40952754Y-27247702D01*
X41008992Y-27141903D01*
X41068845Y-27003138D01*
X41106962Y-26864567D01*
X41129528Y-26696486D01*
X41141144Y-26507315D01*
X41143682Y-26296970D01*
X41134891Y-26091165D01*
X41116547Y-25924434D01*
X41109166Y-25885937D01*
X41062674Y-25735988D01*
X40993662Y-25579599D01*
X40913872Y-25437136D01*
X40835046Y-25328965D01*
X40768928Y-25275452D01*
X40755757Y-25273000D01*
X40699568Y-25301453D01*
X40606774Y-25375844D01*
X40503511Y-25474083D01*
X40306706Y-25675167D01*
X40387631Y-25773804D01*
X40483941Y-25948499D01*
X40539596Y-26171409D01*
X40555052Y-26417827D01*
X40530765Y-26663045D01*
X40467190Y-26882356D01*
X40364784Y-27051052D01*
X40364052Y-27051863D01*
X40338283Y-27093968D01*
X40347970Y-27142055D01*
X40402216Y-27212914D01*
X40510126Y-27323336D01*
X40512547Y-27325721D01*
X40623452Y-27432821D01*
X40693111Y-27488175D01*
X40740167Y-27499883D01*
X40783264Y-27476045D01*
G36*
X39920333Y-26361861D02*
X39919815Y-26093113D01*
X39918367Y-25855341D01*
X39916144Y-25660705D01*
X39913302Y-25521366D01*
X39909997Y-25449484D01*
X39908527Y-25442333D01*
X39875626Y-25470311D01*
X39797275Y-25545309D01*
X39687330Y-25653925D01*
X39624000Y-25717500D01*
X39351279Y-25992667D01*
X38650333Y-25992667D01*
X38650333Y-26754667D01*
X39388888Y-26754667D01*
X39654611Y-27018027D01*
X39920333Y-27281388D01*
X39920333Y-26361861D01*
X39920333Y-26361861D01*
G37*
X39920333Y-26361861D02*
X39919815Y-26093113D01*
X39918367Y-25855341D01*
X39916144Y-25660705D01*
X39913302Y-25521366D01*
X39909997Y-25449484D01*
X39908527Y-25442333D01*
X39875626Y-25470311D01*
X39797275Y-25545309D01*
X39687330Y-25653925D01*
X39624000Y-25717500D01*
X39351279Y-25992667D01*
X38650333Y-25992667D01*
X38650333Y-26754667D01*
X39388888Y-26754667D01*
X39654611Y-27018027D01*
X39920333Y-27281388D01*
X39920333Y-26361861D01*
M02*
