%TF.GenerationSoftware,KiCad,Pcbnew,4.0.7*%
%TF.CreationDate,2018-07-03T10:31:09+02:00*%
%TF.ProjectId,smd_aio,736D645F61696F2E6B696361645F7063,rev?*%
%TF.FileFunction,Soldermask,Bot*%
%FSLAX46Y46*%
G04 Gerber Fmt 4.6, Leading zero omitted, Abs format (unit mm)*
G04 Created by KiCad (PCBNEW 4.0.7) date Tuesday, 03 July 2018 'AMt' 10:31:09*
%MOMM*%
%LPD*%
G01*
G04 APERTURE LIST*
%ADD10C,0.100000*%
%ADD11C,2.500000*%
%ADD12C,2.000000*%
%ADD13R,1.700000X1.700000*%
%ADD14C,1.700000*%
%ADD15O,4.400000X3.600000*%
%ADD16O,3.600000X4.400000*%
%ADD17O,3.400000X2.700000*%
%ADD18C,1.800000*%
%ADD19R,2.432000X2.127200*%
%ADD20O,2.432000X2.127200*%
%ADD21R,2.127200X2.432000*%
%ADD22O,2.127200X2.432000*%
%ADD23R,2.127200X2.127200*%
%ADD24O,2.127200X2.127200*%
%ADD25R,2.940000X2.940000*%
%ADD26C,2.940000*%
%ADD27C,1.600000*%
%ADD28C,2.400000*%
%ADD29C,3.600000*%
%ADD30C,4.000000*%
G04 APERTURE END LIST*
D10*
D11*
X170651000Y-60563000D03*
X164651000Y-65163000D03*
X164651000Y-55963000D03*
D12*
X166751000Y-60563000D03*
X166751000Y-63103000D03*
X166751000Y-58023000D03*
D13*
X77851000Y-93363000D03*
D14*
X77851000Y-91363000D03*
D13*
X96401000Y-110213000D03*
D14*
X98401000Y-110213000D03*
D13*
X107801000Y-90313000D03*
D14*
X109801000Y-90313000D03*
D13*
X96226000Y-89963000D03*
D14*
X98226000Y-89963000D03*
D13*
X164601000Y-94263000D03*
D14*
X166601000Y-94263000D03*
D13*
X164051000Y-108313000D03*
D14*
X166051000Y-108313000D03*
D13*
X141626000Y-58838000D03*
D14*
X141626000Y-56838000D03*
D13*
X137551000Y-80613000D03*
D14*
X137551000Y-82613000D03*
D13*
X144201000Y-80613000D03*
D14*
X144201000Y-82613000D03*
D15*
X171601000Y-83913000D03*
X171601000Y-93913000D03*
D16*
X176101000Y-88913000D03*
D17*
X171601000Y-88913000D03*
D15*
X171626000Y-98413000D03*
X171626000Y-108413000D03*
D16*
X176126000Y-103413000D03*
D17*
X171626000Y-103413000D03*
D18*
X50626000Y-50063000D03*
X43626000Y-46463000D03*
X50651000Y-41988000D03*
X43651000Y-38388000D03*
X50670000Y-33930000D03*
X43670000Y-30330000D03*
X50670000Y-25850000D03*
X43670000Y-22250000D03*
X59226000Y-77663000D03*
X55626000Y-84663000D03*
X50026000Y-77813000D03*
X43026000Y-74213000D03*
X50261000Y-68473000D03*
X43261000Y-64873000D03*
X50271000Y-60143000D03*
X43271000Y-56543000D03*
D19*
X60575000Y-95750000D03*
D20*
X60575000Y-98290000D03*
X60575000Y-100830000D03*
X60575000Y-103370000D03*
X60575000Y-105910000D03*
X60575000Y-108450000D03*
D21*
X124701000Y-97638000D03*
D22*
X127241000Y-97638000D03*
X129781000Y-97638000D03*
X132321000Y-97638000D03*
D19*
X84429333Y-107143000D03*
D20*
X84429333Y-109683000D03*
X84429333Y-112223000D03*
D23*
X123151000Y-26863000D03*
D24*
X123151000Y-24323000D03*
X125691000Y-26863000D03*
X125691000Y-24323000D03*
X128231000Y-26863000D03*
X128231000Y-24323000D03*
X130771000Y-26863000D03*
X130771000Y-24323000D03*
X133311000Y-26863000D03*
X133311000Y-24323000D03*
D23*
X121076000Y-110438000D03*
D24*
X121076000Y-107898000D03*
X123616000Y-110438000D03*
X123616000Y-107898000D03*
X126156000Y-110438000D03*
X126156000Y-107898000D03*
X128696000Y-110438000D03*
X128696000Y-107898000D03*
X131236000Y-110438000D03*
X131236000Y-107898000D03*
X133776000Y-110438000D03*
X133776000Y-107898000D03*
X136316000Y-110438000D03*
X136316000Y-107898000D03*
X138856000Y-110438000D03*
X138856000Y-107898000D03*
D23*
X160065000Y-94324000D03*
D24*
X157525000Y-94324000D03*
X160065000Y-91784000D03*
X157525000Y-91784000D03*
X160065000Y-89244000D03*
X157525000Y-89244000D03*
X160065000Y-86704000D03*
X157525000Y-86704000D03*
D23*
X159526000Y-108438000D03*
D24*
X156986000Y-108438000D03*
X159526000Y-105898000D03*
X156986000Y-105898000D03*
X159526000Y-103358000D03*
X156986000Y-103358000D03*
X159526000Y-100818000D03*
X156986000Y-100818000D03*
D25*
X23851000Y-43173000D03*
D26*
X23851000Y-48253000D03*
D25*
X23851000Y-28573000D03*
D26*
X23851000Y-33653000D03*
D11*
X170876000Y-33063000D03*
X164876000Y-37663000D03*
X164876000Y-28463000D03*
D12*
X166976000Y-33063000D03*
X166976000Y-35603000D03*
X166976000Y-30523000D03*
D25*
X23622000Y-99187000D03*
D26*
X23622000Y-104267000D03*
D25*
X24001000Y-74003000D03*
D26*
X24001000Y-79083000D03*
D25*
X23921000Y-59713000D03*
D26*
X23921000Y-64793000D03*
D27*
X94141000Y-50143000D03*
X91601000Y-47603000D03*
X96681000Y-47603000D03*
X99651000Y-79488000D03*
X97111000Y-76948000D03*
X102191000Y-76948000D03*
D28*
X25875000Y-93275000D03*
X21375000Y-93275000D03*
X25875000Y-86775000D03*
X21375000Y-86775000D03*
D29*
X175501000Y-113788000D03*
X21984571Y-113668000D03*
X175401000Y-20413000D03*
X22251000Y-20388000D03*
D30*
X169926000Y-114488000D03*
X27326000Y-114463000D03*
D14*
X52000000Y-93025000D03*
D13*
X54500000Y-93025000D03*
D30*
X170201000Y-19413000D03*
D23*
X131200000Y-89040000D03*
D24*
X131200000Y-91580000D03*
X128660000Y-89040000D03*
X128660000Y-91580000D03*
X126120000Y-89040000D03*
X126120000Y-91580000D03*
X123580000Y-89040000D03*
X123580000Y-91580000D03*
D15*
X171450000Y-42000000D03*
X171450000Y-52000000D03*
D16*
X175950000Y-47000000D03*
D17*
X171450000Y-47000000D03*
D15*
X171450000Y-69375000D03*
X171450000Y-79375000D03*
D16*
X175950000Y-74375000D03*
D17*
X171450000Y-74375000D03*
D21*
X128025000Y-77425000D03*
D22*
X125485000Y-77425000D03*
X122945000Y-77425000D03*
M02*
