M48
;DRILL file {KiCad (5.0.1)-4} date 19.04.2019 10:25:59
;FORMAT={-:-/ absolute / metric / decimal}
FMAT,2
METRIC,TZ
T1C0.300
T2C0.400
T3C0.650
T4C0.800
T5C1.016
T6C1.100
T7C1.300
T8C1.700
T9C2.600
%
G90
G05
M71
T1
X82.Y-70.775
X74.45Y-35.45
X78.125Y-35.45
X79.35Y-36.675
X79.4Y-32.975
X80.06Y-55.485
X80.775Y-64.575
X82.Y-73.275
X78.565Y-55.465
X82.Y-64.575
X35.48Y-44.83
X80.775Y-73.275
X81.72Y-55.515
X34.01Y-64.35
X34.67Y-76.84
X78.325Y-73.275
X54.29Y-34.12
X32.79Y-19.97
X54.051Y-62.281
X56.82Y-48.819
X75.3Y-41.975
X82.025Y-62.15
X77.075Y-74.875
X79.55Y-69.525
X76.525Y-41.975
X78.125Y-30.4
X80.775Y-70.775
X53.83Y-74.24
X78.125Y-39.125
X76.9Y-35.45
X80.775Y-68.275
X59.461Y-75.387
X78.975Y-41.975
X77.65Y-24.73
X53.51Y-69.25
X76.9Y-36.675
X92.075Y-26.975
X76.9Y-34.225
X79.35Y-31.725
X77.1Y-63.375
X56.73Y-30.5
X78.325Y-67.05
X56.5Y-24.18
X59.56Y-55.02
X80.775Y-67.05
X32.57Y-64.4
X79.55Y-60.675
X53.83Y-49.63
X38.17Y-60.49
X60.24Y-24.18
X37.22Y-37.93
X34.17Y-19.94
X52.37Y-45.75
X56.845Y-48.87
X79.35Y-39.125
X76.9Y-27.575
X80.75Y-74.875
X80.775Y-69.525
X78.1Y-28.975
X79.35Y-27.575
X78.325Y-69.525
X51.89Y-76.98
X76.9Y-39.125
X75.63Y-24.73
X103.25Y-84.51
X82.Y-68.275
X62.662Y-79.502
X63.35Y-28.91
X74.5Y-32.975
X79.35Y-35.45
X78.125Y-31.725
X80.775Y-63.375
X54.02Y-62.26
X79.55Y-67.05
X34.89Y-53.71
X79.55Y-73.275
X56.85Y-54.95
X78.325Y-64.575
X49.87Y-71.52
X77.1Y-73.275
X83.42Y-55.515
X56.48Y-65.44
X33.43Y-78.55
X38.66Y-37.93
X51.94Y-24.22
X60.604Y-49.2
X75.65Y-28.975
X78.35Y-62.15
X79.525Y-74.875
X78.325Y-70.775
X79.575Y-62.15
X82.Y-67.05
X77.75Y-41.975
X76.95Y-32.975
X78.325Y-72.
X46.22Y-94.64
X75.675Y-37.9
X78.125Y-34.225
X75.675Y-34.225
X75.675Y-31.725
X79.55Y-65.825
X60.3Y-43.01
X77.1Y-64.575
X35.94Y-37.93
X80.775Y-72.
X60.75Y-46.87
X78.325Y-63.375
X31.99Y-53.77
X56.55Y-27.54
X56.97Y-46.91
X39.41Y-44.85
X38.3Y-76.04
X139.09Y-66.58
X51.95Y-27.53
X76.875Y-28.975
X80.8Y-62.15
X78.3Y-74.875
X77.1Y-70.775
X74.475Y-40.4
X74.45Y-37.9
X92.05Y-60.875
X79.55Y-68.275
X74.425Y-28.975
X75.725Y-32.975
X139.11Y-64.46
X76.9Y-37.9
X135.5Y-67.45
X79.35Y-34.225
X79.41Y-24.75
X74.45Y-34.225
X77.1Y-65.825
X77.1Y-72.
X59.51Y-62.26
X80.775Y-65.825
X53.95Y-65.42
X79.55Y-72.
X54.22Y-55.
X79.55Y-63.375
X33.38Y-53.79
X78.325Y-60.675
X36.61Y-60.49
X141.21Y-66.57
X141.21Y-64.47
X49.96Y-48.41
X79.325Y-28.975
X77.125Y-62.15
X78.125Y-27.575
X79.55Y-70.775
X64.025Y-74.175
X75.7Y-40.4
X75.675Y-36.675
X77.1Y-68.275
X68.656Y-76.352
X76.925Y-40.4
X75.675Y-35.45
X56.261Y-75.26
X78.125Y-37.9
X78.175Y-32.975
X74.45Y-31.725
X82.Y-63.375
X60.29Y-27.54
X60.17Y-30.67
X78.325Y-65.825
X56.29Y-72.98
X82.Y-72.
X56.63Y-62.24
X59.32Y-65.46
X82.Y-60.675
X59.461Y-72.974
X140.18Y-65.58
X31.43Y-19.94
X51.2Y-31.77
X78.15Y-40.4
X75.675Y-30.375
X76.9Y-30.4
X77.1Y-67.05
X74.45Y-39.125
X78.125Y-36.675
X77.1Y-69.525
X67.488Y-78.334
X76.9Y-31.725
X79.35Y-37.9
X45.08Y-94.09
X74.475Y-30.35
X73.68Y-24.7
X79.55Y-64.575
X77.1Y-60.675
X77.16Y-55.445
X82.Y-65.825
X31.05Y-64.44
X57.23Y-37.56
X56.81Y-43.05
X39.74Y-60.55
X29.71Y-78.55
X80.775Y-60.675
X38.37Y-77.41
X64.52Y-25.26
X57.04Y-34.12
X75.675Y-39.125
X74.45Y-27.575
X75.675Y-27.575
X82.Y-69.525
X79.35Y-30.375
X78.325Y-68.275
X48.62Y-73.83
X79.375Y-40.4
X74.45Y-36.675
T2
X31.9Y-101.31
X33.74Y-112.02
X33.8Y-95.675
X36.8Y-85.4
X46.711Y-52.375
X46.776Y-21.738
X47.45Y-85.225
X49.5Y-111.65
X54.21Y-111.77
X54.35Y-109.2
X58.025Y-93.1
X58.725Y-85.825
X59.842Y-81.331
X64.325Y-93.675
X64.826Y-86.938
X64.826Y-104.838
X66.601Y-114.888
X68.601Y-96.813
X68.651Y-114.313
X70.75Y-87.025
X71.826Y-115.888
X71.875Y-114.25
X72.325Y-82.225
X72.676Y-85.313
X72.751Y-107.063
X72.751Y-109.538
X73.626Y-105.188
X73.651Y-115.4
X79.626Y-103.663
X79.726Y-98.163
X81.501Y-76.35
X81.651Y-86.438
X82.006Y-75.605
X82.25Y-80.85
X82.351Y-84.913
X82.901Y-76.288
X83.101Y-86.213
X83.35Y-80.854
X83.375Y-104.825
X83.44Y-98.44
X83.48Y-99.71
X83.95Y-115.75
X83.976Y-96.013
X84.026Y-26.513
X84.076Y-84.738
X84.247Y-80.92
X85.676Y-62.538
X85.801Y-104.563
X86.1Y-96.37
X86.176Y-63.913
X86.201Y-26.863
X86.258Y-32.313
X86.451Y-28.163
X87.026Y-64.563
X88.251Y-103.763
X88.926Y-105.888
X89.275Y-35.225
X89.6Y-102.25
X89.9Y-103.151
X90.172Y-100.661
X90.751Y-106.563
X90.88Y-113.34
X91.975Y-29.925
X92.07Y-103.3
X92.622Y-101.857
X92.84Y-98.007
X92.975Y-98.9
X93.473Y-101.566
X93.93Y-102.88
X93.95Y-100.119
X94.076Y-93.963
X94.14Y-96.94
X94.167Y-100.993
X94.28Y-111.11
X94.45Y-99.225
X94.451Y-91.463
X94.554Y-107.281
X94.651Y-89.913
X94.726Y-93.313
X94.95Y-97.512
X95.076Y-102.868
X95.185Y-101.221
X95.93Y-96.85
X96.326Y-112.438
X96.801Y-106.213
X96.901Y-102.868
X97.551Y-101.514
X97.575Y-98.325
X97.717Y-100.214
X98.372Y-99.572
X98.451Y-115.288
X98.701Y-35.288
X98.919Y-100.868
X99.475Y-94.05
X99.826Y-34.038
X99.976Y-61.663
X100.1Y-112.7
X100.101Y-109.463
X100.251Y-58.113
X100.3Y-107.39
X100.425Y-103.575
X100.501Y-36.388
X101.051Y-96.063
X101.35Y-113.9
X101.551Y-35.963
X101.551Y-103.363
X101.651Y-100.713
X101.751Y-101.813
X102.151Y-105.963
X105.001Y-115.388
X105.45Y-31.2
X105.625Y-97.1
X106.101Y-83.938
X106.751Y-106.813
X107.451Y-31.45
X109.401Y-100.613
X109.501Y-85.188
X110.02Y-34.37
X110.109Y-106.172
X111.151Y-99.863
X111.851Y-59.038
X113.919Y-114.3
X114.101Y-60.913
X114.427Y-103.759
X114.819Y-95.09
X115.062Y-104.419
X115.15Y-97.125
X115.316Y-106.172
X115.824Y-105.283
X116.151Y-95.563
X116.276Y-114.263
X116.459Y-113.284
X116.967Y-99.441
X118.026Y-96.388
X125.095Y-113.284
X125.96Y-32.514
X126.425Y-70.875
X127.1Y-31.7
X129.286Y-80.137
X129.286Y-82.677
X129.54Y-99.568
X129.54Y-106.045
X129.651Y-72.213
X130.025Y-70.8
X130.175Y-105.156
X130.201Y-73.213
X130.302Y-100.33
X130.851Y-79.113
X131.75Y-78.65
X132.501Y-53.063
X132.501Y-79.513
X133.4Y-78.65
X133.401Y-53.063
X134.232Y-79.787
X134.401Y-53.013
X134.651Y-63.613
X135.5Y-69.875
X137.101Y-40.663
X137.55Y-70.9
X138.176Y-95.758
X139.451Y-98.113
X139.925Y-60.8
X140.3Y-100.5
X142.201Y-40.613
X142.575Y-94.65
X143.1Y-37.75
X143.9Y-72.55
X143.918Y-33.
X143.951Y-39.238
X144.025Y-78.3
X144.101Y-69.013
X144.201Y-64.088
X144.851Y-67.259
X144.901Y-31.663
X145.926Y-102.063
X146.151Y-67.213
X149.15Y-63.
X150.801Y-39.163
X152.101Y-32.763
X156.451Y-52.913
X160.651Y-36.913
X162.801Y-58.813
T3
X43.651Y-38.388
X50.651Y-41.988
X43.617Y-62.843
X50.617Y-66.443
X97.111Y-76.948
X99.651Y-79.488
X102.191Y-76.948
X43.67Y-30.33
X50.67Y-33.93
X43.617Y-70.971
X50.617Y-74.571
X43.67Y-22.25
X50.67Y-25.85
X43.617Y-54.588
X50.617Y-58.188
X43.617Y-79.099
X50.617Y-82.699
X91.601Y-47.603
X94.141Y-50.143
X96.681Y-47.603
X43.626Y-46.463
X50.626Y-50.063
T4
X164.051Y-108.313
X166.051Y-108.313
X77.851Y-91.363
X77.851Y-93.363
X144.201Y-80.613
X144.201Y-82.613
X107.801Y-90.313
X109.801Y-90.313
X96.226Y-89.963
X98.226Y-89.963
X166.976Y-30.523
X166.976Y-33.063
X166.976Y-35.603
X96.401Y-110.213
X98.401Y-110.213
X52.Y-93.025
X54.5Y-93.025
X141.626Y-56.838
X141.626Y-58.838
X164.601Y-94.263
X166.601Y-94.263
X166.751Y-58.023
X166.751Y-60.563
X166.751Y-63.103
X137.551Y-80.613
X137.551Y-82.613
T5
X60.575Y-95.75
X60.575Y-98.29
X60.575Y-100.83
X60.575Y-103.37
X60.575Y-105.91
X60.575Y-108.45
X156.718Y-89.154
X156.718Y-91.694
X156.718Y-94.234
X159.258Y-89.154
X159.258Y-91.694
X159.258Y-94.234
X122.945Y-77.425
X125.485Y-77.425
X128.025Y-77.425
X123.58Y-89.04
X123.58Y-91.58
X126.12Y-89.04
X126.12Y-91.58
X128.66Y-89.04
X128.66Y-91.58
X131.2Y-89.04
X131.2Y-91.58
X156.718Y-100.584
X156.718Y-103.124
X156.718Y-105.664
X159.258Y-100.584
X159.258Y-103.124
X159.258Y-105.664
X121.076Y-107.898
X121.076Y-110.438
X123.616Y-107.898
X123.616Y-110.438
X126.156Y-107.898
X126.156Y-110.438
X128.696Y-107.898
X128.696Y-110.438
X131.236Y-107.898
X131.236Y-110.438
X133.776Y-107.898
X133.776Y-110.438
X136.316Y-107.898
X136.316Y-110.438
X138.856Y-107.898
X138.856Y-110.438
X123.151Y-24.323
X123.151Y-26.863
X125.691Y-24.323
X125.691Y-26.863
X128.231Y-24.323
X128.231Y-26.863
X130.771Y-24.323
X130.771Y-26.863
X133.311Y-24.323
X133.311Y-26.863
X121.285Y-102.133
X123.825Y-102.133
X126.365Y-102.133
X132.842Y-102.235
X135.382Y-102.235
X137.922Y-102.235
X84.429Y-107.143
X84.429Y-109.683
X84.429Y-112.223
X124.701Y-96.876
X127.241Y-96.876
X129.781Y-96.876
X132.321Y-96.876
T6
X21.375Y-86.775
X21.375Y-93.275
X25.875Y-86.775
X25.875Y-93.275
T7
X23.87Y-98.11
X23.87Y-103.19
X23.921Y-59.713
X23.921Y-64.793
X23.851Y-43.173
X23.851Y-48.253
X23.851Y-28.573
X23.851Y-33.653
X24.001Y-74.003
X24.001Y-79.083
T8
X171.626Y-103.413
X171.45Y-74.375
X171.45Y-47.
X171.601Y-88.913
T9
X171.626Y-98.413
X171.626Y-108.413
X176.126Y-103.413
X171.45Y-69.375
X171.45Y-79.375
X175.95Y-74.375
X171.45Y-42.
X171.45Y-52.
X175.95Y-47.
X171.601Y-83.913
X171.601Y-93.913
X176.101Y-88.913
T0
M30
