%TF.GenerationSoftware,KiCad,Pcbnew,4.0.7*%
%TF.CreationDate,2018-07-02T08:28:23+02:00*%
%TF.ProjectId,smd_aio,736D645F61696F2E6B696361645F7063,rev?*%
%TF.FileFunction,Paste,Top*%
%FSLAX46Y46*%
G04 Gerber Fmt 4.6, Leading zero omitted, Abs format (unit mm)*
G04 Created by KiCad (PCBNEW 4.0.7) date Monday, 02. July 2018 'u28' 08:28:23*
%MOMM*%
%LPD*%
G01*
G04 APERTURE LIST*
%ADD10C,0.100000*%
%ADD11R,1.300000X0.250000*%
%ADD12R,0.250000X1.300000*%
%ADD13R,1.600000X2.000000*%
%ADD14R,2.000000X1.600000*%
%ADD15R,2.499360X1.800860*%
%ADD16R,2.000000X1.700000*%
%ADD17R,1.700000X2.000000*%
%ADD18R,1.800860X2.499360*%
%ADD19R,1.200000X0.900000*%
%ADD20R,0.900000X1.200000*%
%ADD21R,1.250000X1.500000*%
%ADD22R,0.800000X1.900000*%
%ADD23R,2.000000X3.800000*%
%ADD24R,2.000000X1.500000*%
%ADD25R,1.550000X0.600000*%
%ADD26R,1.500000X0.600000*%
%ADD27R,1.000000X0.285000*%
%ADD28R,0.279400X0.812800*%
%ADD29R,0.812800X0.279400*%
%ADD30R,3.352800X3.352800*%
%ADD31R,0.355600X1.447800*%
%ADD32R,0.600000X1.100000*%
%ADD33R,1.980000X3.000000*%
%ADD34R,1.500000X1.250000*%
%ADD35R,2.650000X3.500000*%
%ADD36R,1.600000X1.000000*%
%ADD37R,1.000000X1.600000*%
G04 APERTURE END LIST*
D10*
X77276000Y-35663000D02*
X77276000Y-33863000D01*
X77376000Y-35663000D02*
X77376000Y-33863000D01*
X77476000Y-35663000D02*
X77476000Y-33863000D01*
X77576000Y-35663000D02*
X77576000Y-33863000D01*
X77676000Y-35663000D02*
X77676000Y-33863000D01*
X77776000Y-35663000D02*
X77776000Y-33863000D01*
X77876000Y-35663000D02*
X77876000Y-33863000D01*
X77976000Y-35663000D02*
X77976000Y-33863000D01*
X78076000Y-35663000D02*
X78076000Y-33863000D01*
X78176000Y-35663000D02*
X78176000Y-33863000D01*
X78276000Y-35663000D02*
X78276000Y-33863000D01*
X78376000Y-35663000D02*
X78376000Y-33863000D01*
X78476000Y-35663000D02*
X78476000Y-33863000D01*
X78576000Y-35663000D02*
X78576000Y-33863000D01*
X77276000Y-37913000D02*
X77276000Y-36163000D01*
X77376000Y-37913000D02*
X77376000Y-36163000D01*
X77476000Y-37913000D02*
X77476000Y-36163000D01*
X77576000Y-37913000D02*
X77576000Y-36163000D01*
X77676000Y-37913000D02*
X77676000Y-36163000D01*
X77776000Y-37913000D02*
X77776000Y-36163000D01*
X77876000Y-37913000D02*
X77876000Y-36163000D01*
X77976000Y-37913000D02*
X77976000Y-36163000D01*
X78076000Y-37913000D02*
X78076000Y-36213000D01*
X78176000Y-37913000D02*
X78176000Y-36163000D01*
X78276000Y-37913000D02*
X78276000Y-36163000D01*
X78376000Y-37913000D02*
X78376000Y-36163000D01*
X78476000Y-37913000D02*
X78476000Y-36163000D01*
X78576000Y-37913000D02*
X78576000Y-36163000D01*
X77176000Y-36163000D02*
X78676000Y-36163000D01*
X77176000Y-37913000D02*
X77176000Y-36163000D01*
X78676000Y-37913000D02*
X77176000Y-37913000D01*
X78676000Y-36163000D02*
X78676000Y-37913000D01*
X77176000Y-33863000D02*
X78676000Y-33863000D01*
X78676000Y-35663000D02*
X77176000Y-35663000D01*
X77176000Y-35663000D02*
X77176000Y-33863000D01*
X78676000Y-33863000D02*
X78676000Y-35663000D01*
X78476000Y-33363000D02*
X78476000Y-31613000D01*
X78076000Y-33363000D02*
X78076000Y-31663000D01*
X77976000Y-33363000D02*
X77976000Y-31613000D01*
X77876000Y-33363000D02*
X77876000Y-31613000D01*
X77776000Y-33363000D02*
X77776000Y-31613000D01*
X77676000Y-33363000D02*
X77676000Y-31613000D01*
X77576000Y-33363000D02*
X77576000Y-31613000D01*
X77476000Y-33363000D02*
X77476000Y-31613000D01*
X77176000Y-31613000D02*
X78676000Y-31613000D01*
X78676000Y-31613000D02*
X78676000Y-33363000D01*
X78576000Y-33363000D02*
X78576000Y-31613000D01*
X77376000Y-33363000D02*
X77376000Y-31613000D01*
X77276000Y-33363000D02*
X77276000Y-31613000D01*
X77176000Y-33363000D02*
X77176000Y-31613000D01*
X78676000Y-33363000D02*
X77176000Y-33363000D01*
X78376000Y-33363000D02*
X78376000Y-31613000D01*
X78276000Y-33363000D02*
X78276000Y-31613000D01*
X78176000Y-33363000D02*
X78176000Y-31613000D01*
X76476000Y-35663000D02*
X76476000Y-33863000D01*
X76076000Y-35663000D02*
X76076000Y-33863000D01*
X75976000Y-35663000D02*
X75976000Y-33863000D01*
X75876000Y-35663000D02*
X75876000Y-33863000D01*
X75176000Y-31613000D02*
X76676000Y-31613000D01*
X76676000Y-31613000D02*
X76676000Y-33363000D01*
X76476000Y-33363000D02*
X76476000Y-31613000D01*
X76376000Y-33363000D02*
X76376000Y-31613000D01*
X75676000Y-33363000D02*
X75676000Y-31613000D01*
X75576000Y-33363000D02*
X75576000Y-31613000D01*
X75276000Y-33363000D02*
X75276000Y-31613000D01*
X75376000Y-33363000D02*
X75376000Y-31613000D01*
X75476000Y-33363000D02*
X75476000Y-31613000D01*
X75176000Y-33363000D02*
X75176000Y-31613000D01*
X76676000Y-33363000D02*
X75176000Y-33363000D01*
X76576000Y-33363000D02*
X76576000Y-31613000D01*
X76276000Y-33363000D02*
X76276000Y-31613000D01*
X75776000Y-33363000D02*
X75776000Y-31613000D01*
X75976000Y-33363000D02*
X75976000Y-31613000D01*
X76076000Y-33363000D02*
X76076000Y-31663000D01*
X75876000Y-33363000D02*
X75876000Y-31613000D01*
X76176000Y-33363000D02*
X76176000Y-31613000D01*
X75176000Y-35663000D02*
X75176000Y-33863000D01*
X75176000Y-33863000D02*
X76676000Y-33863000D01*
X76676000Y-33863000D02*
X76676000Y-35663000D01*
X76576000Y-35663000D02*
X76576000Y-33863000D01*
X75376000Y-35663000D02*
X75376000Y-33863000D01*
X75276000Y-35663000D02*
X75276000Y-33863000D01*
X76676000Y-35663000D02*
X75176000Y-35663000D01*
X76376000Y-35663000D02*
X76376000Y-33863000D01*
X76276000Y-35663000D02*
X76276000Y-33863000D01*
X76176000Y-35663000D02*
X76176000Y-33863000D01*
X75776000Y-35663000D02*
X75776000Y-33863000D01*
X75676000Y-35663000D02*
X75676000Y-33863000D01*
X75576000Y-35663000D02*
X75576000Y-33863000D01*
X75476000Y-35663000D02*
X75476000Y-33863000D01*
X76676000Y-37913000D02*
X75176000Y-37913000D01*
X76476000Y-37913000D02*
X76476000Y-36163000D01*
X75276000Y-37913000D02*
X75276000Y-36163000D01*
X75176000Y-37913000D02*
X75176000Y-36163000D01*
X75676000Y-37913000D02*
X75676000Y-36163000D01*
X75376000Y-37913000D02*
X75376000Y-36163000D01*
X75576000Y-37913000D02*
X75576000Y-36163000D01*
X75776000Y-37913000D02*
X75776000Y-36163000D01*
X75476000Y-37913000D02*
X75476000Y-36163000D01*
X75176000Y-36163000D02*
X76676000Y-36163000D01*
X76376000Y-37913000D02*
X76376000Y-36163000D01*
X76676000Y-36163000D02*
X76676000Y-37913000D01*
X76576000Y-37913000D02*
X76576000Y-36163000D01*
X76276000Y-37913000D02*
X76276000Y-36163000D01*
X75876000Y-37913000D02*
X75876000Y-36163000D01*
X75976000Y-37913000D02*
X75976000Y-36163000D01*
X76176000Y-37913000D02*
X76176000Y-36163000D01*
X76076000Y-37913000D02*
X76076000Y-36213000D01*
X79926000Y-68813000D02*
X79926000Y-67013000D01*
X80026000Y-68813000D02*
X80026000Y-67013000D01*
X80126000Y-68813000D02*
X80126000Y-67013000D01*
X80226000Y-68813000D02*
X80226000Y-67013000D01*
X80326000Y-68813000D02*
X80326000Y-67013000D01*
X80426000Y-68813000D02*
X80426000Y-67013000D01*
X80526000Y-68813000D02*
X80526000Y-67013000D01*
X80626000Y-68813000D02*
X80626000Y-67013000D01*
X80726000Y-68813000D02*
X80726000Y-67013000D01*
X80826000Y-68813000D02*
X80826000Y-67013000D01*
X80926000Y-68813000D02*
X80926000Y-67013000D01*
X81026000Y-68813000D02*
X81026000Y-67013000D01*
X81126000Y-68813000D02*
X81126000Y-67013000D01*
X81226000Y-68813000D02*
X81226000Y-67013000D01*
X79926000Y-71063000D02*
X79926000Y-69313000D01*
X80026000Y-71063000D02*
X80026000Y-69313000D01*
X80126000Y-71063000D02*
X80126000Y-69313000D01*
X80226000Y-71063000D02*
X80226000Y-69313000D01*
X80326000Y-71063000D02*
X80326000Y-69313000D01*
X80426000Y-71063000D02*
X80426000Y-69313000D01*
X80526000Y-71063000D02*
X80526000Y-69313000D01*
X80626000Y-71063000D02*
X80626000Y-69313000D01*
X80726000Y-71063000D02*
X80726000Y-69363000D01*
X80826000Y-71063000D02*
X80826000Y-69313000D01*
X80926000Y-71063000D02*
X80926000Y-69313000D01*
X81026000Y-71063000D02*
X81026000Y-69313000D01*
X81126000Y-71063000D02*
X81126000Y-69313000D01*
X81226000Y-71063000D02*
X81226000Y-69313000D01*
X79826000Y-69313000D02*
X81326000Y-69313000D01*
X79826000Y-71063000D02*
X79826000Y-69313000D01*
X81326000Y-71063000D02*
X79826000Y-71063000D01*
X81326000Y-69313000D02*
X81326000Y-71063000D01*
X79826000Y-67013000D02*
X81326000Y-67013000D01*
X81326000Y-68813000D02*
X79826000Y-68813000D01*
X79826000Y-68813000D02*
X79826000Y-67013000D01*
X81326000Y-67013000D02*
X81326000Y-68813000D01*
X81126000Y-66513000D02*
X81126000Y-64763000D01*
X80726000Y-66513000D02*
X80726000Y-64813000D01*
X80626000Y-66513000D02*
X80626000Y-64763000D01*
X80526000Y-66513000D02*
X80526000Y-64763000D01*
X80426000Y-66513000D02*
X80426000Y-64763000D01*
X80326000Y-66513000D02*
X80326000Y-64763000D01*
X80226000Y-66513000D02*
X80226000Y-64763000D01*
X80126000Y-66513000D02*
X80126000Y-64763000D01*
X79826000Y-64763000D02*
X81326000Y-64763000D01*
X81326000Y-64763000D02*
X81326000Y-66513000D01*
X81226000Y-66513000D02*
X81226000Y-64763000D01*
X80026000Y-66513000D02*
X80026000Y-64763000D01*
X79926000Y-66513000D02*
X79926000Y-64763000D01*
X79826000Y-66513000D02*
X79826000Y-64763000D01*
X81326000Y-66513000D02*
X79826000Y-66513000D01*
X81026000Y-66513000D02*
X81026000Y-64763000D01*
X80926000Y-66513000D02*
X80926000Y-64763000D01*
X80826000Y-66513000D02*
X80826000Y-64763000D01*
X79126000Y-68813000D02*
X79126000Y-67013000D01*
X78726000Y-68813000D02*
X78726000Y-67013000D01*
X78626000Y-68813000D02*
X78626000Y-67013000D01*
X78526000Y-68813000D02*
X78526000Y-67013000D01*
X77826000Y-64763000D02*
X79326000Y-64763000D01*
X79326000Y-64763000D02*
X79326000Y-66513000D01*
X79126000Y-66513000D02*
X79126000Y-64763000D01*
X79026000Y-66513000D02*
X79026000Y-64763000D01*
X78326000Y-66513000D02*
X78326000Y-64763000D01*
X78226000Y-66513000D02*
X78226000Y-64763000D01*
X77926000Y-66513000D02*
X77926000Y-64763000D01*
X78026000Y-66513000D02*
X78026000Y-64763000D01*
X78126000Y-66513000D02*
X78126000Y-64763000D01*
X77826000Y-66513000D02*
X77826000Y-64763000D01*
X79326000Y-66513000D02*
X77826000Y-66513000D01*
X79226000Y-66513000D02*
X79226000Y-64763000D01*
X78926000Y-66513000D02*
X78926000Y-64763000D01*
X78426000Y-66513000D02*
X78426000Y-64763000D01*
X78626000Y-66513000D02*
X78626000Y-64763000D01*
X78726000Y-66513000D02*
X78726000Y-64813000D01*
X78526000Y-66513000D02*
X78526000Y-64763000D01*
X78826000Y-66513000D02*
X78826000Y-64763000D01*
X77826000Y-68813000D02*
X77826000Y-67013000D01*
X77826000Y-67013000D02*
X79326000Y-67013000D01*
X79326000Y-67013000D02*
X79326000Y-68813000D01*
X79226000Y-68813000D02*
X79226000Y-67013000D01*
X78026000Y-68813000D02*
X78026000Y-67013000D01*
X77926000Y-68813000D02*
X77926000Y-67013000D01*
X79326000Y-68813000D02*
X77826000Y-68813000D01*
X79026000Y-68813000D02*
X79026000Y-67013000D01*
X78926000Y-68813000D02*
X78926000Y-67013000D01*
X78826000Y-68813000D02*
X78826000Y-67013000D01*
X78426000Y-68813000D02*
X78426000Y-67013000D01*
X78326000Y-68813000D02*
X78326000Y-67013000D01*
X78226000Y-68813000D02*
X78226000Y-67013000D01*
X78126000Y-68813000D02*
X78126000Y-67013000D01*
X79326000Y-71063000D02*
X77826000Y-71063000D01*
X79126000Y-71063000D02*
X79126000Y-69313000D01*
X77926000Y-71063000D02*
X77926000Y-69313000D01*
X77826000Y-71063000D02*
X77826000Y-69313000D01*
X78326000Y-71063000D02*
X78326000Y-69313000D01*
X78026000Y-71063000D02*
X78026000Y-69313000D01*
X78226000Y-71063000D02*
X78226000Y-69313000D01*
X78426000Y-71063000D02*
X78426000Y-69313000D01*
X78126000Y-71063000D02*
X78126000Y-69313000D01*
X77826000Y-69313000D02*
X79326000Y-69313000D01*
X79026000Y-71063000D02*
X79026000Y-69313000D01*
X79326000Y-69313000D02*
X79326000Y-71063000D01*
X79226000Y-71063000D02*
X79226000Y-69313000D01*
X78926000Y-71063000D02*
X78926000Y-69313000D01*
X78526000Y-71063000D02*
X78526000Y-69313000D01*
X78626000Y-71063000D02*
X78626000Y-69313000D01*
X78826000Y-71063000D02*
X78826000Y-69313000D01*
X78726000Y-71063000D02*
X78726000Y-69363000D01*
D11*
X91426000Y-97163000D03*
X91426000Y-97663000D03*
X91426000Y-98163000D03*
X91426000Y-98663000D03*
X91426000Y-99163000D03*
X91426000Y-99663000D03*
X91426000Y-100163000D03*
X91426000Y-100663000D03*
X91426000Y-101163000D03*
X91426000Y-101663000D03*
X91426000Y-102163000D03*
X91426000Y-102663000D03*
D12*
X93026000Y-104263000D03*
X93526000Y-104263000D03*
X94026000Y-104263000D03*
X94526000Y-104263000D03*
X95026000Y-104263000D03*
X95526000Y-104263000D03*
X96026000Y-104263000D03*
X96526000Y-104263000D03*
X97026000Y-104263000D03*
X97526000Y-104263000D03*
X98026000Y-104263000D03*
X98526000Y-104263000D03*
D11*
X100126000Y-102663000D03*
X100126000Y-102163000D03*
X100126000Y-101663000D03*
X100126000Y-101163000D03*
X100126000Y-100663000D03*
X100126000Y-100163000D03*
X100126000Y-99663000D03*
X100126000Y-99163000D03*
X100126000Y-98663000D03*
X100126000Y-98163000D03*
X100126000Y-97663000D03*
X100126000Y-97163000D03*
D12*
X98526000Y-95563000D03*
X98026000Y-95563000D03*
X97526000Y-95563000D03*
X97026000Y-95563000D03*
X96526000Y-95563000D03*
X96026000Y-95563000D03*
X95526000Y-95563000D03*
X95026000Y-95563000D03*
X94526000Y-95563000D03*
X94026000Y-95563000D03*
X93526000Y-95563000D03*
X93026000Y-95563000D03*
D13*
X73491000Y-61663000D03*
X73491000Y-57663000D03*
D14*
X29100000Y-87275000D03*
X33100000Y-87275000D03*
D13*
X85051000Y-101963000D03*
X85051000Y-97963000D03*
X87951000Y-101963000D03*
X87951000Y-97963000D03*
X92800000Y-112610000D03*
X92800000Y-108610000D03*
D14*
X110151000Y-94763000D03*
X106151000Y-94763000D03*
D13*
X104526000Y-88088000D03*
X104526000Y-92088000D03*
X101626000Y-88088000D03*
X101626000Y-92088000D03*
D14*
X86401000Y-88438000D03*
X82401000Y-88438000D03*
X86401000Y-91388000D03*
X82401000Y-91388000D03*
X112401000Y-111963000D03*
X108401000Y-111963000D03*
D13*
X92801000Y-92163000D03*
X92801000Y-88163000D03*
D14*
X95251000Y-84913000D03*
X99251000Y-84913000D03*
D13*
X90001000Y-92163000D03*
X90001000Y-88163000D03*
D14*
X107601000Y-102863000D03*
X103601000Y-102863000D03*
X107601000Y-100213000D03*
X103601000Y-100213000D03*
X107726000Y-34388000D03*
X111726000Y-34388000D03*
D13*
X114076000Y-25763000D03*
X114076000Y-29763000D03*
X94261000Y-32553000D03*
X94261000Y-28553000D03*
X89531000Y-32553000D03*
X89531000Y-28553000D03*
D14*
X90576000Y-41868000D03*
X86576000Y-41868000D03*
X90551000Y-38593000D03*
X86551000Y-38593000D03*
X87551000Y-46393000D03*
X83551000Y-46393000D03*
X74201000Y-44288000D03*
X78201000Y-44288000D03*
D13*
X70181000Y-43093000D03*
X70181000Y-47093000D03*
X70251000Y-27613000D03*
X70251000Y-23613000D03*
D14*
X67041000Y-50293000D03*
X63041000Y-50293000D03*
X67426000Y-21563000D03*
X63426000Y-21563000D03*
D13*
X33426000Y-47613000D03*
X33426000Y-51613000D03*
X37451000Y-40688000D03*
X37451000Y-44688000D03*
X37326000Y-31913000D03*
X37326000Y-35913000D03*
X32976000Y-25963000D03*
X32976000Y-21963000D03*
X137176000Y-59338000D03*
X137176000Y-55338000D03*
X139310999Y-72598000D03*
X139310999Y-76598000D03*
X145926000Y-59338000D03*
X145926000Y-55338000D03*
X145876000Y-76613000D03*
X145876000Y-72613000D03*
X141900000Y-72600000D03*
X141900000Y-76600000D03*
D14*
X152801000Y-26963000D03*
X148801000Y-26963000D03*
X152801000Y-39163000D03*
X148801000Y-39163000D03*
D13*
X160639001Y-35000000D03*
X160639001Y-31000000D03*
D14*
X153751000Y-62013000D03*
X157751000Y-62013000D03*
D13*
X160876000Y-58838000D03*
X160876000Y-62838000D03*
X149201000Y-55363000D03*
X149201000Y-59363000D03*
X39775000Y-87900000D03*
X39775000Y-83900000D03*
X43425000Y-87900000D03*
X43425000Y-83900000D03*
X49400000Y-102050000D03*
X49400000Y-98050000D03*
X52100000Y-102050000D03*
X52100000Y-98050000D03*
D14*
X43425000Y-112375000D03*
X47425000Y-112375000D03*
X38050000Y-97750000D03*
X42050000Y-97750000D03*
X38050000Y-94950000D03*
X42050000Y-94950000D03*
X38050000Y-92175000D03*
X42050000Y-92175000D03*
X107651000Y-68913000D03*
X111651000Y-68913000D03*
D13*
X111526000Y-61863000D03*
X111526000Y-65863000D03*
X94176000Y-66938000D03*
X94176000Y-62938000D03*
X90101000Y-66963000D03*
X90101000Y-62963000D03*
D14*
X92276000Y-74238000D03*
X88276000Y-74238000D03*
X92301000Y-71663000D03*
X88301000Y-71663000D03*
X89901000Y-78163000D03*
X85901000Y-78163000D03*
X77001000Y-78888000D03*
X81001000Y-78888000D03*
D13*
X72901000Y-76713000D03*
X72901000Y-80713000D03*
X68276000Y-81488000D03*
X68276000Y-85488000D03*
D14*
X67111000Y-56003000D03*
X63111000Y-56003000D03*
D13*
X36376000Y-81013000D03*
X36376000Y-77013000D03*
X31571000Y-73993000D03*
X31571000Y-77993000D03*
X38021000Y-66583000D03*
X38021000Y-62583000D03*
X32311000Y-58353000D03*
X32311000Y-62353000D03*
X114251000Y-53963000D03*
X114251000Y-57963000D03*
D14*
X114251000Y-46813000D03*
X110251000Y-46813000D03*
D15*
X59001020Y-89850000D03*
X62998980Y-89850000D03*
X111512040Y-22050000D03*
X115510000Y-22050000D03*
D16*
X104321000Y-53643000D03*
X100321000Y-53643000D03*
D17*
X149176000Y-76613000D03*
X149176000Y-72613000D03*
D16*
X132576499Y-65898500D03*
X128576499Y-65898500D03*
D15*
X30348980Y-109525000D03*
X26351020Y-109525000D03*
D18*
X30450000Y-90701020D03*
X30450000Y-94698980D03*
X45825000Y-101873980D03*
X45825000Y-97876020D03*
D16*
X112226000Y-80463000D03*
X108226000Y-80463000D03*
X63525000Y-112750000D03*
X59525000Y-112750000D03*
D17*
X29925000Y-100450000D03*
X29925000Y-104450000D03*
D19*
X154228833Y-54962500D03*
X156428833Y-54962500D03*
D20*
X49825000Y-87900000D03*
X49825000Y-85700000D03*
D21*
X111151000Y-56363000D03*
X111151000Y-53863000D03*
D22*
X72101000Y-94738000D03*
X70201000Y-94738000D03*
X71151000Y-97738000D03*
X70316952Y-104818000D03*
X72216952Y-104818000D03*
X71266952Y-101818000D03*
X79176000Y-112813000D03*
X81076000Y-112813000D03*
X80126000Y-109813000D03*
X69976952Y-112568000D03*
X71876952Y-112568000D03*
X70926952Y-109568000D03*
D23*
X75401000Y-99663000D03*
D24*
X81701000Y-99663000D03*
X81701000Y-97363000D03*
X81701000Y-101963000D03*
D16*
X33025000Y-84450000D03*
X29025000Y-84450000D03*
D17*
X76026000Y-112763000D03*
X76026000Y-108763000D03*
X66676000Y-113013000D03*
X66676000Y-109013000D03*
X66663500Y-93750500D03*
X66663500Y-97750500D03*
X66701000Y-105388000D03*
X66701000Y-101388000D03*
D16*
X80101000Y-105463000D03*
X76101000Y-105463000D03*
D17*
X88643500Y-111855499D03*
X88643500Y-107855499D03*
D16*
X86301000Y-94213000D03*
X82301000Y-94213000D03*
D17*
X102101000Y-111813000D03*
X102101000Y-107813000D03*
D16*
X103601000Y-97513000D03*
X107601000Y-97513000D03*
D17*
X105101000Y-111813000D03*
X105101000Y-107813000D03*
X166573000Y-88691000D03*
X166573000Y-84691000D03*
X166101000Y-103013000D03*
X166101000Y-99013000D03*
D16*
X149251000Y-94663000D03*
X153251000Y-94663000D03*
X149266000Y-89094000D03*
X153266000Y-89094000D03*
X148779000Y-108889000D03*
X152779000Y-108889000D03*
X148779000Y-103393000D03*
X152779000Y-103393000D03*
X149301000Y-91913000D03*
X153301000Y-91913000D03*
X149316000Y-86350000D03*
X153316000Y-86350000D03*
X148801000Y-106063000D03*
X152801000Y-106063000D03*
X148751000Y-100613000D03*
X152751000Y-100613000D03*
X119351000Y-34438000D03*
X115351000Y-34438000D03*
D17*
X109351000Y-29838000D03*
X109351000Y-25838000D03*
D16*
X104651000Y-49393000D03*
X100651000Y-49393000D03*
D17*
X134026000Y-55363000D03*
X134026000Y-59363000D03*
X130651000Y-55338000D03*
X130651000Y-59338000D03*
X135301000Y-76663000D03*
X135301000Y-72663000D03*
D16*
X128615501Y-68893500D03*
X132615501Y-68893500D03*
D17*
X146001000Y-69088000D03*
X146001000Y-65088000D03*
D16*
X128551000Y-62913000D03*
X132551000Y-62913000D03*
X157576000Y-58738000D03*
X153576000Y-58738000D03*
X52200000Y-112050000D03*
X56200000Y-112050000D03*
X56225000Y-109150000D03*
X52225000Y-109150000D03*
X118926000Y-68838000D03*
X114926000Y-68838000D03*
D17*
X107526000Y-65863000D03*
X107526000Y-61863000D03*
D16*
X112226000Y-77113000D03*
X108226000Y-77113000D03*
X130901000Y-43713000D03*
X126901000Y-43713000D03*
X110101000Y-40663000D03*
X114101000Y-40663000D03*
X110101000Y-43713000D03*
X114101000Y-43713000D03*
X130901000Y-49813000D03*
X126901000Y-49813000D03*
X130951000Y-46813000D03*
X126951000Y-46813000D03*
X130951000Y-40663000D03*
X126951000Y-40663000D03*
X53150000Y-106000000D03*
X57150000Y-106000000D03*
D25*
X113792905Y-109363000D03*
X113792905Y-108093000D03*
X113792905Y-106823000D03*
X113792905Y-105553000D03*
X108392905Y-105553000D03*
X108392905Y-106823000D03*
X108392905Y-108093000D03*
X108392905Y-109363000D03*
D26*
X103026000Y-34048000D03*
X103026000Y-32778000D03*
X103026000Y-31508000D03*
X103026000Y-30238000D03*
X103026000Y-28968000D03*
X103026000Y-27698000D03*
X103026000Y-26428000D03*
X97626000Y-26428000D03*
X97626000Y-27698000D03*
X97626000Y-28968000D03*
X97626000Y-30238000D03*
X97626000Y-31508000D03*
X97626000Y-32778000D03*
X97626000Y-34048000D03*
D27*
X80676000Y-40513000D03*
X80676000Y-40013000D03*
X80676000Y-39513000D03*
X80676000Y-39013000D03*
X80676000Y-38513000D03*
X80676000Y-38013000D03*
X80676000Y-37513000D03*
X80676000Y-37013000D03*
X80676000Y-36513000D03*
X80676000Y-36013000D03*
X80676000Y-35513000D03*
X80676000Y-35013000D03*
X80676000Y-34513000D03*
X80676000Y-34013000D03*
X80676000Y-33513000D03*
X80676000Y-33013000D03*
X80676000Y-32513000D03*
X80676000Y-32013000D03*
X80676000Y-31513000D03*
X80676000Y-31013000D03*
X80676000Y-30513000D03*
X80676000Y-30013000D03*
X80676000Y-29513000D03*
X80676000Y-29013000D03*
X73176000Y-29013000D03*
X73176000Y-29513000D03*
X73176000Y-30013000D03*
X73176000Y-30513000D03*
X73176000Y-31013000D03*
X73176000Y-31513000D03*
X73176000Y-32013000D03*
X73176000Y-32513000D03*
X73176000Y-33013000D03*
X73176000Y-33513000D03*
X73176000Y-34013000D03*
X73176000Y-34513000D03*
X73176000Y-35013000D03*
X73176000Y-35513000D03*
X73176000Y-36013000D03*
X73176000Y-36513000D03*
X73176000Y-37013000D03*
X73176000Y-37513000D03*
X73176000Y-38013000D03*
X73176000Y-38513000D03*
X73176000Y-39013000D03*
X73176000Y-39513000D03*
X73176000Y-40013000D03*
X73176000Y-40513000D03*
D28*
X141900999Y-63112700D03*
X141401000Y-63112700D03*
X140901001Y-63112700D03*
X140401000Y-63112700D03*
X139901000Y-63112700D03*
X139400999Y-63112700D03*
X138901000Y-63112700D03*
X138401001Y-63112700D03*
D29*
X137750700Y-63763001D03*
X137750700Y-64263000D03*
X137750700Y-64762999D03*
X137750700Y-65263000D03*
X137750700Y-65763000D03*
X137750700Y-66263001D03*
X137750700Y-66763000D03*
X137750700Y-67262999D03*
D28*
X138401001Y-67913300D03*
X138901000Y-67913300D03*
X139400999Y-67913300D03*
X139901000Y-67913300D03*
X140401000Y-67913300D03*
X140901001Y-67913300D03*
X141401000Y-67913300D03*
X141900999Y-67913300D03*
D29*
X142551300Y-67262999D03*
X142551300Y-66763000D03*
X142551300Y-66263001D03*
X142551300Y-65763000D03*
X142551300Y-65263000D03*
X142551300Y-64762999D03*
X142551300Y-64263000D03*
X142551300Y-63763001D03*
D30*
X140151000Y-65513000D03*
D31*
X156356381Y-30013501D03*
X155706380Y-30013501D03*
X155056381Y-30013501D03*
X154406380Y-30013501D03*
X153756382Y-30013501D03*
X153106380Y-30013501D03*
X152456382Y-30013501D03*
X151806383Y-30013501D03*
X151156382Y-30013501D03*
X150506383Y-30013501D03*
X149856382Y-30013501D03*
X149206383Y-30013501D03*
X148556382Y-30013501D03*
X147906383Y-30013501D03*
X147906381Y-35779301D03*
X148556382Y-35779301D03*
X149206381Y-35779301D03*
X149856382Y-35779301D03*
X150506380Y-35779301D03*
X151156382Y-35779301D03*
X151806380Y-35779301D03*
X152456382Y-35779301D03*
X153106380Y-35779301D03*
X153756382Y-35779301D03*
X154406380Y-35779301D03*
X155056381Y-35779301D03*
X155706380Y-35779301D03*
X156356381Y-35779301D03*
D32*
X47900000Y-108025000D03*
X48850000Y-108025000D03*
X49800000Y-108025000D03*
X49800000Y-105325000D03*
X48850000Y-105325000D03*
X47900000Y-105325000D03*
D26*
X102826000Y-68973000D03*
X102826000Y-67703000D03*
X102826000Y-66433000D03*
X102826000Y-65163000D03*
X102826000Y-63893000D03*
X102826000Y-62623000D03*
X102826000Y-61353000D03*
X97426000Y-61353000D03*
X97426000Y-62623000D03*
X97426000Y-63893000D03*
X97426000Y-65163000D03*
X97426000Y-66433000D03*
X97426000Y-67703000D03*
X97426000Y-68973000D03*
D27*
X83326000Y-73663000D03*
X83326000Y-73163000D03*
X83326000Y-72663000D03*
X83326000Y-72163000D03*
X83326000Y-71663000D03*
X83326000Y-71163000D03*
X83326000Y-70663000D03*
X83326000Y-70163000D03*
X83326000Y-69663000D03*
X83326000Y-69163000D03*
X83326000Y-68663000D03*
X83326000Y-68163000D03*
X83326000Y-67663000D03*
X83326000Y-67163000D03*
X83326000Y-66663000D03*
X83326000Y-66163000D03*
X83326000Y-65663000D03*
X83326000Y-65163000D03*
X83326000Y-64663000D03*
X83326000Y-64163000D03*
X83326000Y-63663000D03*
X83326000Y-63163000D03*
X83326000Y-62663000D03*
X83326000Y-62163000D03*
X75826000Y-62163000D03*
X75826000Y-62663000D03*
X75826000Y-63163000D03*
X75826000Y-63663000D03*
X75826000Y-64163000D03*
X75826000Y-64663000D03*
X75826000Y-65163000D03*
X75826000Y-65663000D03*
X75826000Y-66163000D03*
X75826000Y-66663000D03*
X75826000Y-67163000D03*
X75826000Y-67663000D03*
X75826000Y-68163000D03*
X75826000Y-68663000D03*
X75826000Y-69163000D03*
X75826000Y-69663000D03*
X75826000Y-70163000D03*
X75826000Y-70663000D03*
X75826000Y-71163000D03*
X75826000Y-71663000D03*
X75826000Y-72163000D03*
X75826000Y-72663000D03*
X75826000Y-73163000D03*
X75826000Y-73663000D03*
D26*
X123201000Y-49958000D03*
X123201000Y-48688000D03*
X123201000Y-47418000D03*
X123201000Y-46148000D03*
X123201000Y-44878000D03*
X123201000Y-43608000D03*
X123201000Y-42338000D03*
X123201000Y-41068000D03*
X117801000Y-41068000D03*
X117801000Y-42338000D03*
X117801000Y-43608000D03*
X117801000Y-44878000D03*
X117801000Y-46148000D03*
X117801000Y-47418000D03*
X117801000Y-48688000D03*
X117801000Y-49958000D03*
D33*
X118171000Y-59263000D03*
X123431000Y-59263000D03*
X123431000Y-54263000D03*
X118171000Y-54263000D03*
D34*
X60551000Y-36788000D03*
X63051000Y-36788000D03*
X67451000Y-39443000D03*
X69951000Y-39443000D03*
X67426000Y-32113000D03*
X69926000Y-32113000D03*
X60526000Y-34638000D03*
X63026000Y-34638000D03*
X63341000Y-70173000D03*
X65841000Y-70173000D03*
X69841000Y-73003000D03*
X72341000Y-73003000D03*
X69841000Y-65153000D03*
X72341000Y-65153000D03*
X63381000Y-67963000D03*
X65881000Y-67963000D03*
D35*
X41875000Y-105825000D03*
X34425000Y-105825000D03*
D14*
X146775000Y-42950000D03*
X142775000Y-42950000D03*
D13*
X166725000Y-44350000D03*
X166725000Y-48350000D03*
X163775000Y-72150000D03*
X163775000Y-76150000D03*
X149200000Y-69075000D03*
X149200000Y-65075000D03*
X127675000Y-59300000D03*
X127675000Y-55300000D03*
D16*
X142775000Y-46225000D03*
X146775000Y-46225000D03*
X146775000Y-49425000D03*
X142775000Y-49425000D03*
D17*
X167200000Y-72100000D03*
X167200000Y-76100000D03*
D36*
X150850000Y-44260000D03*
X150850000Y-46800000D03*
X150850000Y-49340000D03*
X162350000Y-49340000D03*
X162350000Y-46800000D03*
X162350000Y-44260000D03*
D37*
X154585000Y-79075000D03*
X157125000Y-79075000D03*
X159665000Y-79075000D03*
X159665000Y-67575000D03*
X157125000Y-67575000D03*
X154585000Y-67575000D03*
M02*
